<?xml version="1.0" encoding="utf-8"?>
<svg version="1.1" xmlns:xlink="http://www.w3.org/1999/xlink" width="24px" height="24px" viewBox="832 873  24 24" xmlns="http://www.w3.org/2000/svg">
  <path d="M 844 873  C 850.72 873  856 878.28  856 885  C 856 891.72  850.72 897  844 897  C 837.28 897  832 891.72  832 885  C 832 878.28  837.28 873  844 873  Z " fill-rule="nonzero" fill="#ffffff" stroke="none" />
  <path d="M 844 873.5  C 850.44 873.5  855.5 878.56  855.5 885  C 855.5 891.44  850.44 896.5  844 896.5  C 837.56 896.5  832.5 891.44  832.5 885  C 832.5 878.56  837.56 873.5  844 873.5  Z " stroke-width="1" stroke="#797979" fill="none" />
  <path d="M 844 891  C 840.64 891  838 888.36  838 885  C 838 881.64  840.64 879  844 879  C 847.36 879  850 881.64  850 885  C 850 888.36  847.36 891  844 891  " fill-rule="nonzero" fill="#797979" stroke="none" />
</svg>