<?xml version="1.0" encoding="utf-8"?>
<svg version="1.1" xmlns:xlink="http://www.w3.org/1999/xlink" width="24px" height="24px" viewBox="832 1459  24 24" xmlns="http://www.w3.org/2000/svg">
  <path d="M 844 1459  C 850.72 1459  856 1464.28  856 1471  C 856 1477.72  850.72 1483  844 1483  C 837.28 1483  832 1477.72  832 1471  C 832 1464.28  837.28 1459  844 1459  Z " fill-rule="nonzero" fill="#ffffff" stroke="none" />
  <path d="M 844 1459.5  C 850.44 1459.5  855.5 1464.56  855.5 1471  C 855.5 1477.44  850.44 1482.5  844 1482.5  C 837.56 1482.5  832.5 1477.44  832.5 1471  C 832.5 1464.56  837.56 1459.5  844 1459.5  Z " stroke-width="1" stroke="#797979" fill="none" />
  <path d="M 844 1477  C 840.64 1477  838 1474.36  838 1471  C 838 1467.64  840.64 1465  844 1465  C 847.36 1465  850 1467.64  850 1471  C 850 1474.36  847.36 1477  844 1477  " fill-rule="nonzero" fill="#797979" stroke="none" />
</svg>