<?xml version="1.0" encoding="utf-8"?>
<svg version="1.1" xmlns:xlink="http://www.w3.org/1999/xlink" width="24px" height="24px" viewBox="832 182  24 24" xmlns="http://www.w3.org/2000/svg">
  <path d="M 844 182  C 850.72 182  856 187.28  856 194  C 856 200.72  850.72 206  844 206  C 837.28 206  832 200.72  832 194  C 832 187.28  837.28 182  844 182  Z " fill-rule="nonzero" fill="#ffffff" stroke="none" />
  <path d="M 844 182.5  C 850.44 182.5  855.5 187.56  855.5 194  C 855.5 200.44  850.44 205.5  844 205.5  C 837.56 205.5  832.5 200.44  832.5 194  C 832.5 187.56  837.56 182.5  844 182.5  Z " stroke-width="1" stroke="#797979" fill="none" />
  <path d="M 844 200  C 840.64 200  838 197.36  838 194  C 838 190.64  840.64 188  844 188  C 847.36 188  850 190.64  850 194  C 850 197.36  847.36 200  844 200  " fill-rule="nonzero" fill="#797979" stroke="none" />
</svg>