<?xml version="1.0" encoding="utf-8"?>
<svg version="1.1" xmlns:xlink="http://www.w3.org/1999/xlink" width="24px" height="24px" viewBox="832 2003  24 24" xmlns="http://www.w3.org/2000/svg">
  <path d="M 844 2003  C 850.72 2003  856 2008.28  856 2015  C 856 2021.72  850.72 2027  844 2027  C 837.28 2027  832 2021.72  832 2015  C 832 2008.28  837.28 2003  844 2003  Z " fill-rule="nonzero" fill="#ffffff" stroke="none" />
  <path d="M 844 2003.5  C 850.44 2003.5  855.5 2008.56  855.5 2015  C 855.5 2021.44  850.44 2026.5  844 2026.5  C 837.56 2026.5  832.5 2021.44  832.5 2015  C 832.5 2008.56  837.56 2003.5  844 2003.5  Z " stroke-width="1" stroke="#797979" fill="none" />
  <path d="M 844 2021  C 840.64 2021  838 2018.36  838 2015  C 838 2011.64  840.64 2009  844 2009  C 847.36 2009  850 2011.64  850 2015  C 850 2018.36  847.36 2021  844 2021  " fill-rule="nonzero" fill="#797979" stroke="none" />
</svg>