<?xml version="1.0" encoding="utf-8"?>
<svg version="1.1" xmlns:xlink="http://www.w3.org/1999/xlink" width="24px" height="24px" viewBox="832 1426  24 24" xmlns="http://www.w3.org/2000/svg">
  <path d="M 844 1426  C 850.72 1426  856 1431.28  856 1438  C 856 1444.72  850.72 1450  844 1450  C 837.28 1450  832 1444.72  832 1438  C 832 1431.28  837.28 1426  844 1426  Z " fill-rule="nonzero" fill="#ffffff" stroke="none" />
  <path d="M 844 1426.5  C 850.44 1426.5  855.5 1431.56  855.5 1438  C 855.5 1444.44  850.44 1449.5  844 1449.5  C 837.56 1449.5  832.5 1444.44  832.5 1438  C 832.5 1431.56  837.56 1426.5  844 1426.5  Z " stroke-width="1" stroke="#797979" fill="none" />
  <path d="M 844 1444  C 840.64 1444  838 1441.36  838 1438  C 838 1434.64  840.64 1432  844 1432  C 847.36 1432  850 1434.64  850 1438  C 850 1441.36  847.36 1444  844 1444  " fill-rule="nonzero" fill="#797979" stroke="none" />
</svg>