<?xml version="1.0" encoding="utf-8"?>
<svg version="1.1" xmlns:xlink="http://www.w3.org/1999/xlink" width="10px" height="10px" xmlns="http://www.w3.org/2000/svg">
  <g transform="matrix(1 0 0 1 -212 -1459 )">
    <path d="M 9.32942708333334 2.490234375  C 9.77647569444446 3.25629340277783  10 4.09288194444434  10 5  C 10 5.90711805555566  9.77647569444446 6.74370659722217  9.32942708333334 7.509765625  C 8.88237847222223 8.27582465277783  8.27582465277777 8.88237847222217  7.509765625 9.32942708333348  C 6.74370659722223 9.77647569444434  5.90711805555554 10  5 10  C 4.09288194444446 10  3.25629340277777 9.77647569444434  2.490234375 9.32942708333348  C 1.72417534722223 8.88237847222217  1.11762152777777 8.27582465277783  0.670572916666657 7.509765625  C 0.223524305555543 6.74370659722217  0 5.90711805555566  0 5  C 0 4.09288194444434  0.223524305555543 3.25629340277783  0.670572916666657 2.490234375  C 1.11762152777777 1.72417534722217  1.72417534722223 1.11762152777783  2.490234375 0.670572916666515  C 3.25629340277777 0.223524305555657  4.09288194444446 0  5 0  C 5.90711805555554 0  6.74370659722223 0.223524305555657  7.509765625 0.670572916666515  C 8.27582465277777 1.11762152777783  8.88237847222223 1.72417534722217  9.32942708333334 2.490234375  Z " fill-rule="nonzero" fill="#000000" stroke="none" transform="matrix(1 0 0 1 212 1459 )" />
  </g>
</svg>