<?xml version="1.0" encoding="utf-8"?>
<svg version="1.1" xmlns:xlink="http://www.w3.org/1999/xlink" width="18px" height="20px" xmlns="http://www.w3.org/2000/svg">
  <g transform="matrix(1 0 0 1 -185 -2051 )">
    <path d="M 194 2052  C 198.48 2052  202 2055.96  202 2061  C 202 2066.04  198.48 2070  194 2070  C 189.52 2070  186 2066.04  186 2061  C 186 2055.96  189.52 2052  194 2052  Z " fill-rule="nonzero" fill="#ffffff" stroke="none" fill-opacity="0" />
    <path d="M 194 2052  C 198.48 2052  202 2055.96  202 2061  C 202 2066.04  198.48 2070  194 2070  C 189.52 2070  186 2066.04  186 2061  C 186 2055.96  189.52 2052  194 2052  Z " stroke-width="2" stroke="#797979" fill="none" />
  </g>
</svg>