<?xml version="1.0" encoding="utf-8"?>
<svg version="1.1" xmlns:xlink="http://www.w3.org/1999/xlink" width="30px" height="30px" xmlns="http://www.w3.org/2000/svg">
  <g transform="matrix(1 0 0 1 -18 0 )">
    <path d="M 33 0  C 41.4 0  48 6.6  48 15  C 48 23.4  41.4 30  33 30  C 24.6 30  18 23.4  18 15  C 18 6.6  24.6 0  33 0  Z " fill-rule="nonzero" fill="#02a7f0" stroke="none" />
    <path d="M 33 0.5  C 41.12 0.5  47.5 6.88  47.5 15  C 47.5 23.12  41.12 29.5  33 29.5  C 24.88 29.5  18.5 23.12  18.5 15  C 18.5 6.88  24.88 0.5  33 0.5  Z " stroke-width="1" stroke="#797979" fill="none" />
  </g>
</svg>