<?xml version="1.0" encoding="utf-8"?>
<svg version="1.1" xmlns:xlink="http://www.w3.org/1999/xlink" width="26px" height="28px" xmlns="http://www.w3.org/2000/svg">
  <g transform="matrix(1 0 0 1 -266 -5036 )">
    <path d="M 279 5037  C 285.72 5037  291 5042.72  291 5050  C 291 5057.28  285.72 5063  279 5063  C 272.28 5063  267 5057.28  267 5050  C 267 5042.72  272.28 5037  279 5037  Z " fill-rule="nonzero" fill="#333333" stroke="none" />
    <path d="M 279 5037  C 285.72 5037  291 5042.72  291 5050  C 291 5057.28  285.72 5063  279 5063  C 272.28 5063  267 5057.28  267 5050  C 267 5042.72  272.28 5037  279 5037  Z " stroke-width="2" stroke="#333333" fill="none" />
  </g>
</svg>