<?xml version="1.0" encoding="utf-8"?>
<svg version="1.1" xmlns:xlink="http://www.w3.org/1999/xlink" width="26px" height="28px" xmlns="http://www.w3.org/2000/svg">
  <g transform="matrix(1 0 0 1 -306 -5036 )">
    <path d="M 319 5037  C 325.72 5037  331 5042.72  331 5050  C 331 5057.28  325.72 5063  319 5063  C 312.28 5063  307 5057.28  307 5050  C 307 5042.72  312.28 5037  319 5037  Z " fill-rule="nonzero" fill="#ffffff" stroke="none" fill-opacity="0" />
    <path d="M 319 5037  C 325.72 5037  331 5042.72  331 5050  C 331 5057.28  325.72 5063  319 5063  C 312.28 5063  307 5057.28  307 5050  C 307 5042.72  312.28 5037  319 5037  Z " stroke-width="2" stroke="#797979" fill="none" />
  </g>
</svg>