<?xml version="1.0" encoding="utf-8"?>
<svg version="1.1" xmlns:xlink="http://www.w3.org/1999/xlink" width="18px" height="20px" xmlns="http://www.w3.org/2000/svg">
  <g transform="matrix(1 0 0 1 -157 -2051 )">
    <path d="M 166 2052  C 170.48 2052  174 2055.96  174 2061  C 174 2066.04  170.48 2070  166 2070  C 161.52 2070  158 2066.04  158 2061  C 158 2055.96  161.52 2052  166 2052  Z " fill-rule="nonzero" fill="#333333" stroke="none" />
    <path d="M 166 2052  C 170.48 2052  174 2055.96  174 2061  C 174 2066.04  170.48 2070  166 2070  C 161.52 2070  158 2066.04  158 2061  C 158 2055.96  161.52 2052  166 2052  Z " stroke-width="2" stroke="#333333" fill="none" />
  </g>
</svg>