<svg xmlns="http://www.w3.org/2000/svg" viewBox="0 0 255.2 35.9"><path fill="#C41E3A" d="M250.2 6h.4c.4 0 .6.2.7.5 0 .3.1.5.3.8h.8c-.1-.3-.2-.5-.2-.8-.1-.4-.3-.7-.6-.8.4-.1.6-.4.7-.8 0-.3-.1-.5-.3-.7-.5-.2-.9-.2-1.3-.2s-.8 0-1.2.1v3.2h.8l-.1-1.3zm0-1.5h.4c.5 0 .7.2.7.5s-.3.5-.8.5h-.4l.1-1z"/><path fill="#C41E3A" d="M250.7 8.9c1.8.1 3.3-1.3 3.4-3.1s-1.3-3.3-3.1-3.4h-.4c-1.8-.1-3.3 1.3-3.4 3.1-.1 1.8 1.3 3.3 3.1 3.4h.4zm0-5.9c1.4 0 2.5 1.2 2.5 2.5v.1c0 1.4-1 2.5-2.4 2.6h-.1c-1.4 0-2.5-1.1-2.5-2.5v-.1c-.1-1.4 1-2.6 2.5-2.6-.1 0 0 0 0 0zm-73.6 21.1c0 5.4 2.3 9.6 6.6 11.8h14.6c4.2-2.1 6.5-6.1 6.8-10.9v8.5c0 1.1-.7 2-1.7 2.3h11.8c-.9-.3-1.6-1.2-1.7-2.2V21.9c0-1.6 0-4 1.3-5.4.7-.7 1.7-1.2 2.7-1.2 1.4 0 2.6.9 3.1 2.2.3 1.2.4 2.4.4 3.5v14.7h10c-.9-.3-1.6-1.1-1.6-2.1v-9c.1 4.7 2.7 8.9 6.8 11.1H250c.7-.3 1.4-.7 2.1-1.2v-4c-1.8 1.4-3.9 2.2-6.2 2.2-3.1 0-7.3-2.1-7.2-8.7h16.6c.1-2.5-.3-4.9-1.2-7.2-2.5-6-8.8-6.7-11.2-6.7-7.8 0-13.2 5.3-13.5 12.8v-3c.1-2.1-.2-4.1-1-6-1.2-2.4-4.4-3.8-7.3-3.8-3.2 0-6.2 1.5-8 4.1v-3.8l-9.4.8v1.2c1.1.7 1.5 2.1 1.5 5.2v5c-.4-8.6-6.9-12.5-13.6-12.5-6.9.3-14.5 4.1-14.5 14zM242.8 14c3.6 0 3.7 5.4 3.8 7h-8.1c.5-5 2.1-7 4.3-7zm-51.5-.1c4.1 0 4.6 6.1 4.6 9.9 0 2.9-.2 10-4.8 10-3.9 0-4.7-4.8-4.7-9.7 0-9.8 3.4-10.2 4.9-10.2z"/><path fill="#C41E3A" d="M9.9 35.9h14.8c1.8-.9 3.5-2 4.9-3.5 1.1 1.5 2.5 2.7 4.2 3.5h14.5c4.1-2 6.4-5.9 6.8-10.5l.1 8.2c0 1.1-.7 2-1.7 2.3h11.9c-1-.3-1.7-1.3-1.7-2.4V22.4s0-6 4-8.6c-.3.6-.4 1.2-.4 1.8 0 2.2 1.8 4 4 4s4-1.8 4-4c.1.8.2 1.6.2 2.4v15.6c0 1.1-.7 2-1.7 2.3h11.8c-.9-.3-1.6-1.2-1.6-2.2V21.9c0-1.6 0-4 1.3-5.4.7-.7 1.6-1.2 2.7-1.2 1.4 0 2.6.9 3.1 2.2.3 1.2.4 2.4.4 3.5v14.7h10.2c-.9-.3-1.6-1.1-1.7-2.1v-7.4c.5 4.1 3 7.6 6.6 9.5H120c.7-.3 1.4-.7 2.1-1.2v-4c-1.8 1.4-3.9 2.2-6.2 2.2-3.1 0-7.3-2.1-7.2-8.7h16.5v9.3c0 1.1-.7 2-1.7 2.3h11.9c-1-.3-1.7-1.2-1.7-2.3V22.4s0-6.2 4.2-8.7c-.3.6-.4 1.2-.4 1.9 0 2.3 1.7 4.1 4 4.2.6 0 1.3-.2 1.8-.5.4 4.6 4.7 6.2 9 7.8 3 1.1 5 2.2 5 3.9-.1 2.7-3.8 3-4.9 3-.7 0-4.1 0-5.9-2.4-.6-.9-1-1.9-1-3h-2.3v7.3h17.3c2.9-1.3 4.7-4.2 4.7-7.3 0-4.7-3.5-6.4-8.7-8.5-4.2-1.7-5.5-2.3-5.5-3.7 0-1.8 2.3-2.4 4.1-2.4 1.6 0 3.2.5 4.5 1.4 1 .7 1.6 1.9 1.5 3.1h2.3v-4h2.9v15.9c0 1.6 0 4 1.6 5.5h10.3c-3.1-.8-3.4-3.6-3.4-7V14.2h6.2v-3.6h-7.1v-7l-5.3.5c-.3 4.6-2.3 7.4-5.6 7.8-2.6-1.1-5.3-1.6-8.1-1.5-4.4 0-7.7 1.2-9.7 3.3-.5-1.9-2.3-3.2-4.3-3.1-5.3 0-7.9 4.6-8.3 5.4v-5.2l-.9.1-7.9.7v1.2c1.2.8 1.4 2.4 1.5 4.7v4.1c-.1-1.5-.4-3-1-4.4-2.5-6-8.8-6.7-11.2-6.7-7.2 0-12.3 4.6-13.3 11.2v-1.3c.2-2.1-.2-4.1-1-6-1.2-2.4-4.4-3.8-7.3-3.8-3.2 0-6.2 1.5-8 4.1v-3.9l-9.6.8c-.8-.7-1.9-1-2.9-1-5.3 0-7.9 4.6-8.3 5.4v-5.2l-.9.1-7.9.7v1.2c1.2.8 1.5 2.4 1.5 4.7v5.3c-.6-8.4-6.9-12.3-13.6-12.3s-14.3 3.8-14.3 13.7c0 2.1.4 4.1 1.2 6.1-2.1 1.9-4.9 2.9-7.7 3-6.2 0-10.9-5.5-10.9-15.5C10.1 13.3 11.5 4 20 4c3.4 0 7.1 1.4 7.7 6.5H30v-8C26.2.8 22.5 0 18.7 0 6.5 0 0 8 0 18.8c0 8.4 4 14.4 9.9 17.1zM113 14c3.6 0 3.7 5.4 3.8 7h-8.1c.4-5 2.1-7 4.3-7zm-71.6 0c4.2 0 4.6 6.1 4.6 9.9 0 2.9-.2 10-4.8 10-3.8 0-4.7-4.8-4.7-9.7 0-9.8 3.4-10.2 4.9-10.2z"/></svg>
