<?xml version="1.0" encoding="utf-8"?>
<svg version="1.1" xmlns:xlink="http://www.w3.org/1999/xlink" width="13px" height="13px" xmlns="http://www.w3.org/2000/svg">
  <g transform="matrix(1 0 0 1 -358 -451 )">
    <path d="M 364.5 451  C 368.14 451  371 453.86  371 457.5  C 371 461.14  368.14 464  364.5 464  C 360.86 464  358 461.14  358 457.5  C 358 453.86  360.86 451  364.5 451  Z " fill-rule="nonzero" fill="#797979" stroke="none" />
    <path d="M 364.5 451.5  C 367.86 451.5  370.5 454.14  370.5 457.5  C 370.5 460.86  367.86 463.5  364.5 463.5  C 361.14 463.5  358.5 460.86  358.5 457.5  C 358.5 454.14  361.14 451.5  364.5 451.5  Z " stroke-width="1" stroke="#797979" fill="none" />
  </g>
</svg>