<?xml version="1.0" encoding="utf-8"?>
<svg version="1.1" xmlns:xlink="http://www.w3.org/1999/xlink" width="151px" height="162px" xmlns="http://www.w3.org/2000/svg">
  <g transform="matrix(1 0 0 1 -434 -2402 )">
    <path d="M 434 2402  L 585 2402  L 585 2564  L 434 2564  L 434 2402  " fill-rule="nonzero" fill="#cccccc" stroke="none" />
    <path d="M 445 2413  L 574 2413  L 574 2553  L 445 2553  L 445 2413  " fill-rule="nonzero" fill="#ffffff" stroke="none" />
    <path d="M 523.845 2448.95  C 517.503 2448.95  512.52 2443.967  512.52 2437.625  C 512.52 2431.283  517.503 2426.3  523.845 2426.3  C 530.187 2426.3  535.17 2431.283  535.17 2437.625  C 535.17 2443.967  530.187 2448.95  523.845 2448.95  " fill-rule="nonzero" fill="#cccccc" stroke="none" />
    <path d="M 449 2549  L 449 2476.4  L 479.25 2443.4  L 521.6 2469.8  L 545.8 2463.2  L 570 2469.8  L 570 2549  L 449 2549  " fill-rule="nonzero" fill="#169bd5" stroke="none" />
  </g>
</svg>