<?xml version="1.0" encoding="utf-8"?>
<svg version="1.1" xmlns:xlink="http://www.w3.org/1999/xlink" width="13px" height="13px" xmlns="http://www.w3.org/2000/svg">
  <g transform="matrix(1 0 0 1 -373 -1020 )">
    <path d="M 379.5 1020  C 383.14 1020  386 1022.86  386 1026.5  C 386 1030.14  383.14 1033  379.5 1033  C 375.86 1033  373 1030.14  373 1026.5  C 373 1022.86  375.86 1020  379.5 1020  Z " fill-rule="nonzero" fill="#797979" stroke="none" />
    <path d="M 379.5 1020.5  C 382.86 1020.5  385.5 1023.14  385.5 1026.5  C 385.5 1029.86  382.86 1032.5  379.5 1032.5  C 376.14 1032.5  373.5 1029.86  373.5 1026.5  C 373.5 1023.14  376.14 1020.5  379.5 1020.5  Z " stroke-width="1" stroke="#797979" fill="none" />
  </g>
</svg>