<?xml version="1.0" encoding="utf-8"?>
<svg version="1.1" xmlns:xlink="http://www.w3.org/1999/xlink" width="13px" height="13px" xmlns="http://www.w3.org/2000/svg">
  <g transform="matrix(1 0 0 1 -374 -451 )">
    <path d="M 380.5 451  C 384.14 451  387 453.86  387 457.5  C 387 461.14  384.14 464  380.5 464  C 376.86 464  374 461.14  374 457.5  C 374 453.86  376.86 451  380.5 451  Z " fill-rule="nonzero" fill="#797979" stroke="none" />
    <path d="M 380.5 451.5  C 383.86 451.5  386.5 454.14  386.5 457.5  C 386.5 460.86  383.86 463.5  380.5 463.5  C 377.14 463.5  374.5 460.86  374.5 457.5  C 374.5 454.14  377.14 451.5  380.5 451.5  Z " stroke-width="1" stroke="#797979" fill="none" />
  </g>
</svg>