<?xml version="1.0" encoding="utf-8"?>
<svg version="1.1" xmlns:xlink="http://www.w3.org/1999/xlink" width="20px" height="20px" xmlns="http://www.w3.org/2000/svg">
  <g transform="matrix(1 0 0 1 -207 -1454 )">
    <path d="M 217 1454  C 222.6 1454  227 1458.4  227 1464  C 227 1469.6  222.6 1474  217 1474  C 211.4 1474  207 1469.6  207 1464  C 207 1458.4  211.4 1454  217 1454  Z " fill-rule="nonzero" fill="#ffffff" stroke="none" />
    <path d="M 217 1454.5  C 222.32 1454.5  226.5 1458.68  226.5 1464  C 226.5 1469.32  222.32 1473.5  217 1473.5  C 211.68 1473.5  207.5 1469.32  207.5 1464  C 207.5 1458.68  211.68 1454.5  217 1454.5  Z " stroke-width="1" stroke="#797979" fill="none" />
  </g>
</svg>