<?xml version="1.0" encoding="utf-8"?>
<svg version="1.1" xmlns:xlink="http://www.w3.org/1999/xlink" width="24px" height="24px" viewBox="832 2105  24 24" xmlns="http://www.w3.org/2000/svg">
  <path d="M 844 2105  C 850.72 2105  856 2110.28  856 2117  C 856 2123.72  850.72 2129  844 2129  C 837.28 2129  832 2123.72  832 2117  C 832 2110.28  837.28 2105  844 2105  Z " fill-rule="nonzero" fill="#ffffff" stroke="none" />
  <path d="M 844 2105.5  C 850.44 2105.5  855.5 2110.56  855.5 2117  C 855.5 2123.44  850.44 2128.5  844 2128.5  C 837.56 2128.5  832.5 2123.44  832.5 2117  C 832.5 2110.56  837.56 2105.5  844 2105.5  Z " stroke-width="1" stroke="#797979" fill="none" />
  <path d="M 844 2123  C 840.64 2123  838 2120.36  838 2117  C 838 2113.64  840.64 2111  844 2111  C 847.36 2111  850 2113.64  850 2117  C 850 2120.36  847.36 2123  844 2123  " fill-rule="nonzero" fill="#797979" stroke="none" />
</svg>